<mxfile host="Electron" modified="2025-08-14T18:55:36.037Z" agent="Mozilla/5.0 (Macintosh; Intel Mac OS X 10_15_7) AppleWebKit/537.36 (KHTML, like Gecko) draw.io/24.5.3 Chrome/124.0.6367.207 Electron/30.0.6 Safari/537.36" etag="aYUeEGvgBWMiriLTqO8i" version="24.5.3" type="device">
  <diagram name="Page-1" id="2c4490ee-f0b8-94ab-5012-d5dc3445f7a3">
    <mxGraphModel dx="1485" dy="2286" grid="1" gridSize="10" guides="1" tooltips="1" connect="0" arrows="1" fold="1" page="1" pageScale="1.5" pageWidth="1169" pageHeight="826" background="none" math="0" shadow="0">
      <root>
        <mxCell id="0" style=";html=1;" />
        <mxCell id="1" style=";html=1;" parent="0" />
        <mxCell id="67c90442a009f359-279" value="Mar" style="strokeWidth=1;fontStyle=0;html=1;" parent="1" vertex="1">
          <mxGeometry x="400" y="439" width="120" height="20" as="geometry" />
        </mxCell>
        <mxCell id="7a8b956e7d50b54d-104" value="Apr" style="strokeWidth=1;fontStyle=0;html=1;" parent="1" vertex="1">
          <mxGeometry x="520" y="439" width="120" height="20" as="geometry" />
        </mxCell>
        <mxCell id="7a8b956e7d50b54d-109" value="May" style="strokeWidth=1;fontStyle=0;html=1;" parent="1" vertex="1">
          <mxGeometry x="640" y="439" width="120" height="20" as="geometry" />
        </mxCell>
        <mxCell id="7a8b956e7d50b54d-114" value="June" style="strokeWidth=1;fontStyle=0;html=1;" parent="1" vertex="1">
          <mxGeometry x="760" y="439" width="120" height="20" as="geometry" />
        </mxCell>
        <mxCell id="7a8b956e7d50b54d-119" value="July" style="strokeWidth=1;fontStyle=0;html=1;" parent="1" vertex="1">
          <mxGeometry x="880" y="439" width="120" height="20" as="geometry" />
        </mxCell>
        <mxCell id="7a8b956e7d50b54d-124" value="Aug" style="strokeWidth=1;fontStyle=0;html=1;" parent="1" vertex="1">
          <mxGeometry x="1000" y="439" width="120" height="20" as="geometry" />
        </mxCell>
        <mxCell id="7a8b956e7d50b54d-129" value="Sept" style="strokeWidth=1;fontStyle=0;html=1;" parent="1" vertex="1">
          <mxGeometry x="1120" y="439" width="120" height="20" as="geometry" />
        </mxCell>
        <mxCell id="7a8b956e7d50b54d-134" value="Oct" style="strokeWidth=1;fontStyle=0;html=1;" parent="1" vertex="1">
          <mxGeometry x="1240" y="439" width="120" height="20" as="geometry" />
        </mxCell>
        <mxCell id="7a8b956e7d50b54d-139" value="Nov" style="strokeWidth=1;fontStyle=0;html=1;" parent="1" vertex="1">
          <mxGeometry x="1360" y="439" width="120" height="20" as="geometry" />
        </mxCell>
        <mxCell id="7a8b956e7d50b54d-145" value="Feb" style="strokeWidth=1;fontStyle=0;html=1;" parent="1" vertex="1">
          <mxGeometry x="280" y="439" width="120" height="20" as="geometry" />
        </mxCell>
        <mxCell id="7a8b956e7d50b54d-150" value="" style="align=left;strokeColor=#CCCCCC;html=1;" parent="1" vertex="1">
          <mxGeometry x="160" y="479" width="120" height="20" as="geometry" />
        </mxCell>
        <mxCell id="7a8b956e7d50b54d-151" value="Jan" style="strokeWidth=1;fontStyle=0;html=1;" parent="1" vertex="1">
          <mxGeometry x="160" y="439" width="120" height="20" as="geometry" />
        </mxCell>
        <mxCell id="7a8b956e7d50b54d-157" value="Dec" style="strokeWidth=1;fontStyle=0;html=1;" parent="1" vertex="1">
          <mxGeometry x="1480" y="439" width="120" height="20" as="geometry" />
        </mxCell>
        <mxCell id="7a8b956e7d50b54d-162" value="" style="align=left;strokeColor=#CCCCCC;html=1;" parent="1" vertex="1">
          <mxGeometry x="160" y="499" width="120" height="20" as="geometry" />
        </mxCell>
        <mxCell id="7a8b956e7d50b54d-163" value="" style="align=left;strokeColor=#CCCCCC;html=1;" parent="1" vertex="1">
          <mxGeometry x="160" y="519" width="120" height="20" as="geometry" />
        </mxCell>
        <mxCell id="7a8b956e7d50b54d-164" value="" style="align=left;strokeColor=#CCCCCC;html=1;" parent="1" vertex="1">
          <mxGeometry x="160" y="539" width="120" height="20" as="geometry" />
        </mxCell>
        <mxCell id="7a8b956e7d50b54d-165" value="" style="align=left;strokeColor=#CCCCCC;html=1;" parent="1" vertex="1">
          <mxGeometry x="160" y="559" width="120" height="20" as="geometry" />
        </mxCell>
        <mxCell id="7a8b956e7d50b54d-166" value="" style="align=left;strokeColor=#CCCCCC;html=1;" parent="1" vertex="1">
          <mxGeometry x="160" y="579" width="120" height="20" as="geometry" />
        </mxCell>
        <mxCell id="7a8b956e7d50b54d-167" value="" style="align=left;strokeColor=#CCCCCC;html=1;" parent="1" vertex="1">
          <mxGeometry x="160" y="599" width="120" height="20" as="geometry" />
        </mxCell>
        <mxCell id="7a8b956e7d50b54d-168" value="" style="align=left;strokeColor=#CCCCCC;html=1;" parent="1" vertex="1">
          <mxGeometry x="160" y="619" width="120" height="20" as="geometry" />
        </mxCell>
        <mxCell id="7a8b956e7d50b54d-169" value="" style="align=left;strokeColor=#CCCCCC;html=1;" parent="1" vertex="1">
          <mxGeometry x="160" y="639" width="120" height="20" as="geometry" />
        </mxCell>
        <mxCell id="7a8b956e7d50b54d-170" value="" style="align=left;strokeColor=#CCCCCC;html=1;" parent="1" vertex="1">
          <mxGeometry x="160" y="659" width="120" height="20" as="geometry" />
        </mxCell>
        <mxCell id="7a8b956e7d50b54d-171" value="" style="align=left;strokeColor=#CCCCCC;html=1;" parent="1" vertex="1">
          <mxGeometry x="160" y="679" width="120" height="20" as="geometry" />
        </mxCell>
        <mxCell id="7a8b956e7d50b54d-172" value="" style="align=left;strokeColor=#CCCCCC;html=1;" parent="1" vertex="1">
          <mxGeometry x="160" y="699" width="120" height="20" as="geometry" />
        </mxCell>
        <mxCell id="7a8b956e7d50b54d-173" value="" style="align=left;strokeColor=#CCCCCC;html=1;" parent="1" vertex="1">
          <mxGeometry x="160" y="719" width="120" height="20" as="geometry" />
        </mxCell>
        <mxCell id="7a8b956e7d50b54d-174" value="" style="align=left;strokeColor=#CCCCCC;html=1;" parent="1" vertex="1">
          <mxGeometry x="160" y="739" width="120" height="20" as="geometry" />
        </mxCell>
        <mxCell id="7a8b956e7d50b54d-175" value="" style="align=left;strokeColor=#CCCCCC;html=1;" parent="1" vertex="1">
          <mxGeometry x="160" y="759" width="120" height="20" as="geometry" />
        </mxCell>
        <mxCell id="7a8b956e7d50b54d-176" value="" style="align=left;strokeColor=#CCCCCC;html=1;" parent="1" vertex="1">
          <mxGeometry x="160" y="779" width="120" height="20" as="geometry" />
        </mxCell>
        <mxCell id="7a8b956e7d50b54d-177" value="" style="align=left;strokeColor=#CCCCCC;html=1;" parent="1" vertex="1">
          <mxGeometry x="280" y="479" width="120" height="20" as="geometry" />
        </mxCell>
        <mxCell id="7a8b956e7d50b54d-178" value="" style="align=left;strokeColor=#CCCCCC;html=1;" parent="1" vertex="1">
          <mxGeometry x="280" y="499" width="120" height="20" as="geometry" />
        </mxCell>
        <mxCell id="7a8b956e7d50b54d-179" value="" style="align=left;strokeColor=#CCCCCC;html=1;" parent="1" vertex="1">
          <mxGeometry x="280" y="519" width="120" height="20" as="geometry" />
        </mxCell>
        <mxCell id="7a8b956e7d50b54d-180" value="" style="align=left;strokeColor=#CCCCCC;html=1;" parent="1" vertex="1">
          <mxGeometry x="280" y="539" width="120" height="20" as="geometry" />
        </mxCell>
        <mxCell id="7a8b956e7d50b54d-181" value="" style="align=left;strokeColor=#CCCCCC;html=1;" parent="1" vertex="1">
          <mxGeometry x="280" y="559" width="120" height="20" as="geometry" />
        </mxCell>
        <mxCell id="7a8b956e7d50b54d-182" value="" style="align=left;strokeColor=#CCCCCC;html=1;" parent="1" vertex="1">
          <mxGeometry x="280" y="579" width="120" height="20" as="geometry" />
        </mxCell>
        <mxCell id="7a8b956e7d50b54d-183" value="" style="align=left;strokeColor=#CCCCCC;html=1;" parent="1" vertex="1">
          <mxGeometry x="280" y="599" width="120" height="20" as="geometry" />
        </mxCell>
        <mxCell id="7a8b956e7d50b54d-184" value="" style="align=left;strokeColor=#CCCCCC;html=1;" parent="1" vertex="1">
          <mxGeometry x="280" y="619" width="120" height="20" as="geometry" />
        </mxCell>
        <mxCell id="7a8b956e7d50b54d-185" value="" style="align=left;strokeColor=#CCCCCC;html=1;" parent="1" vertex="1">
          <mxGeometry x="280" y="639" width="120" height="20" as="geometry" />
        </mxCell>
        <mxCell id="7a8b956e7d50b54d-186" value="" style="align=left;strokeColor=#CCCCCC;html=1;" parent="1" vertex="1">
          <mxGeometry x="280" y="659" width="120" height="20" as="geometry" />
        </mxCell>
        <mxCell id="7a8b956e7d50b54d-187" value="" style="align=left;strokeColor=#CCCCCC;html=1;" parent="1" vertex="1">
          <mxGeometry x="280" y="679" width="120" height="20" as="geometry" />
        </mxCell>
        <mxCell id="7a8b956e7d50b54d-188" value="" style="align=left;strokeColor=#CCCCCC;html=1;" parent="1" vertex="1">
          <mxGeometry x="280" y="699" width="120" height="20" as="geometry" />
        </mxCell>
        <mxCell id="7a8b956e7d50b54d-189" value="" style="align=left;strokeColor=#CCCCCC;html=1;" parent="1" vertex="1">
          <mxGeometry x="280" y="719" width="120" height="20" as="geometry" />
        </mxCell>
        <mxCell id="7a8b956e7d50b54d-190" value="" style="align=left;strokeColor=#CCCCCC;html=1;" parent="1" vertex="1">
          <mxGeometry x="280" y="739" width="120" height="20" as="geometry" />
        </mxCell>
        <mxCell id="7a8b956e7d50b54d-191" value="" style="align=left;strokeColor=#CCCCCC;html=1;" parent="1" vertex="1">
          <mxGeometry x="280" y="759" width="120" height="20" as="geometry" />
        </mxCell>
        <mxCell id="7a8b956e7d50b54d-192" value="" style="align=left;strokeColor=#CCCCCC;html=1;" parent="1" vertex="1">
          <mxGeometry x="280" y="779" width="120" height="20" as="geometry" />
        </mxCell>
        <mxCell id="7a8b956e7d50b54d-193" value="" style="align=left;strokeColor=#CCCCCC;html=1;" parent="1" vertex="1">
          <mxGeometry x="400" y="479" width="120" height="20" as="geometry" />
        </mxCell>
        <mxCell id="7a8b956e7d50b54d-194" value="" style="align=left;strokeColor=#CCCCCC;html=1;" parent="1" vertex="1">
          <mxGeometry x="400" y="499" width="120" height="20" as="geometry" />
        </mxCell>
        <mxCell id="7a8b956e7d50b54d-195" value="" style="align=left;strokeColor=#CCCCCC;html=1;" parent="1" vertex="1">
          <mxGeometry x="400" y="519" width="120" height="20" as="geometry" />
        </mxCell>
        <mxCell id="7a8b956e7d50b54d-196" value="" style="align=left;strokeColor=#CCCCCC;html=1;" parent="1" vertex="1">
          <mxGeometry x="400" y="539" width="120" height="20" as="geometry" />
        </mxCell>
        <mxCell id="7a8b956e7d50b54d-197" value="" style="align=left;strokeColor=#CCCCCC;html=1;" parent="1" vertex="1">
          <mxGeometry x="400" y="559" width="120" height="20" as="geometry" />
        </mxCell>
        <mxCell id="7a8b956e7d50b54d-198" value="" style="align=left;strokeColor=#CCCCCC;html=1;" parent="1" vertex="1">
          <mxGeometry x="400" y="579" width="120" height="20" as="geometry" />
        </mxCell>
        <mxCell id="7a8b956e7d50b54d-199" value="" style="align=left;strokeColor=#CCCCCC;html=1;" parent="1" vertex="1">
          <mxGeometry x="400" y="599" width="120" height="20" as="geometry" />
        </mxCell>
        <mxCell id="7a8b956e7d50b54d-200" value="" style="align=left;strokeColor=#CCCCCC;html=1;" parent="1" vertex="1">
          <mxGeometry x="400" y="619" width="120" height="20" as="geometry" />
        </mxCell>
        <mxCell id="7a8b956e7d50b54d-201" value="" style="align=left;strokeColor=#CCCCCC;html=1;" parent="1" vertex="1">
          <mxGeometry x="400" y="639" width="120" height="20" as="geometry" />
        </mxCell>
        <mxCell id="7a8b956e7d50b54d-202" value="" style="align=left;strokeColor=#CCCCCC;html=1;" parent="1" vertex="1">
          <mxGeometry x="400" y="659" width="120" height="20" as="geometry" />
        </mxCell>
        <mxCell id="7a8b956e7d50b54d-203" value="" style="align=left;strokeColor=#CCCCCC;html=1;" parent="1" vertex="1">
          <mxGeometry x="400" y="679" width="120" height="20" as="geometry" />
        </mxCell>
        <mxCell id="7a8b956e7d50b54d-204" value="" style="align=left;strokeColor=#CCCCCC;html=1;" parent="1" vertex="1">
          <mxGeometry x="400" y="699" width="120" height="20" as="geometry" />
        </mxCell>
        <mxCell id="7a8b956e7d50b54d-205" value="" style="align=left;strokeColor=#CCCCCC;html=1;" parent="1" vertex="1">
          <mxGeometry x="400" y="719" width="120" height="20" as="geometry" />
        </mxCell>
        <mxCell id="7a8b956e7d50b54d-206" value="" style="align=left;strokeColor=#CCCCCC;html=1;" parent="1" vertex="1">
          <mxGeometry x="400" y="739" width="120" height="20" as="geometry" />
        </mxCell>
        <mxCell id="7a8b956e7d50b54d-207" value="" style="align=left;strokeColor=#CCCCCC;html=1;" parent="1" vertex="1">
          <mxGeometry x="400" y="759" width="120" height="20" as="geometry" />
        </mxCell>
        <mxCell id="7a8b956e7d50b54d-208" value="" style="align=left;strokeColor=#CCCCCC;html=1;" parent="1" vertex="1">
          <mxGeometry x="400" y="779" width="120" height="20" as="geometry" />
        </mxCell>
        <mxCell id="7a8b956e7d50b54d-209" value="" style="align=left;strokeColor=#CCCCCC;html=1;" parent="1" vertex="1">
          <mxGeometry x="520" y="479" width="120" height="20" as="geometry" />
        </mxCell>
        <mxCell id="7a8b956e7d50b54d-210" value="" style="align=left;strokeColor=#CCCCCC;html=1;" parent="1" vertex="1">
          <mxGeometry x="520" y="499" width="120" height="20" as="geometry" />
        </mxCell>
        <mxCell id="7a8b956e7d50b54d-211" value="" style="align=left;strokeColor=#CCCCCC;html=1;" parent="1" vertex="1">
          <mxGeometry x="520" y="519" width="120" height="20" as="geometry" />
        </mxCell>
        <mxCell id="7a8b956e7d50b54d-212" value="" style="align=left;strokeColor=#CCCCCC;html=1;" parent="1" vertex="1">
          <mxGeometry x="520" y="539" width="120" height="20" as="geometry" />
        </mxCell>
        <mxCell id="7a8b956e7d50b54d-213" value="" style="align=left;strokeColor=#CCCCCC;html=1;" parent="1" vertex="1">
          <mxGeometry x="520" y="559" width="120" height="20" as="geometry" />
        </mxCell>
        <mxCell id="7a8b956e7d50b54d-214" value="" style="align=left;strokeColor=#CCCCCC;html=1;" parent="1" vertex="1">
          <mxGeometry x="520" y="579" width="120" height="20" as="geometry" />
        </mxCell>
        <mxCell id="7a8b956e7d50b54d-215" value="" style="align=left;strokeColor=#CCCCCC;html=1;" parent="1" vertex="1">
          <mxGeometry x="520" y="599" width="120" height="20" as="geometry" />
        </mxCell>
        <mxCell id="7a8b956e7d50b54d-216" value="" style="align=left;strokeColor=#CCCCCC;html=1;" parent="1" vertex="1">
          <mxGeometry x="520" y="619" width="120" height="20" as="geometry" />
        </mxCell>
        <mxCell id="7a8b956e7d50b54d-217" value="" style="align=left;strokeColor=#CCCCCC;html=1;" parent="1" vertex="1">
          <mxGeometry x="520" y="639" width="120" height="20" as="geometry" />
        </mxCell>
        <mxCell id="7a8b956e7d50b54d-218" value="" style="align=left;strokeColor=#CCCCCC;html=1;" parent="1" vertex="1">
          <mxGeometry x="520" y="659" width="120" height="20" as="geometry" />
        </mxCell>
        <mxCell id="7a8b956e7d50b54d-219" value="" style="align=left;strokeColor=#CCCCCC;html=1;" parent="1" vertex="1">
          <mxGeometry x="520" y="679" width="120" height="20" as="geometry" />
        </mxCell>
        <mxCell id="7a8b956e7d50b54d-220" value="" style="align=left;strokeColor=#CCCCCC;html=1;" parent="1" vertex="1">
          <mxGeometry x="520" y="699" width="120" height="20" as="geometry" />
        </mxCell>
        <mxCell id="7a8b956e7d50b54d-221" value="" style="align=left;strokeColor=#CCCCCC;html=1;" parent="1" vertex="1">
          <mxGeometry x="520" y="719" width="120" height="20" as="geometry" />
        </mxCell>
        <mxCell id="7a8b956e7d50b54d-222" value="" style="align=left;strokeColor=#CCCCCC;html=1;" parent="1" vertex="1">
          <mxGeometry x="520" y="739" width="120" height="20" as="geometry" />
        </mxCell>
        <mxCell id="7a8b956e7d50b54d-223" value="" style="align=left;strokeColor=#CCCCCC;html=1;" parent="1" vertex="1">
          <mxGeometry x="520" y="759" width="120" height="20" as="geometry" />
        </mxCell>
        <mxCell id="7a8b956e7d50b54d-224" value="" style="align=left;strokeColor=#CCCCCC;html=1;" parent="1" vertex="1">
          <mxGeometry x="520" y="779" width="120" height="20" as="geometry" />
        </mxCell>
        <mxCell id="7a8b956e7d50b54d-225" value="" style="align=left;strokeColor=#CCCCCC;html=1;" parent="1" vertex="1">
          <mxGeometry x="640" y="479" width="120" height="20" as="geometry" />
        </mxCell>
        <mxCell id="7a8b956e7d50b54d-226" value="" style="align=left;strokeColor=#CCCCCC;html=1;" parent="1" vertex="1">
          <mxGeometry x="640" y="499" width="120" height="20" as="geometry" />
        </mxCell>
        <mxCell id="7a8b956e7d50b54d-227" value="" style="align=left;strokeColor=#CCCCCC;html=1;" parent="1" vertex="1">
          <mxGeometry x="640" y="519" width="120" height="20" as="geometry" />
        </mxCell>
        <mxCell id="7a8b956e7d50b54d-228" value="" style="align=left;strokeColor=#CCCCCC;html=1;" parent="1" vertex="1">
          <mxGeometry x="640" y="539" width="120" height="20" as="geometry" />
        </mxCell>
        <mxCell id="7a8b956e7d50b54d-229" value="" style="align=left;strokeColor=#CCCCCC;html=1;" parent="1" vertex="1">
          <mxGeometry x="640" y="559" width="120" height="20" as="geometry" />
        </mxCell>
        <mxCell id="7a8b956e7d50b54d-230" value="" style="align=left;strokeColor=#CCCCCC;html=1;" parent="1" vertex="1">
          <mxGeometry x="640" y="579" width="120" height="20" as="geometry" />
        </mxCell>
        <mxCell id="7a8b956e7d50b54d-231" value="" style="align=left;strokeColor=#CCCCCC;html=1;" parent="1" vertex="1">
          <mxGeometry x="640" y="599" width="120" height="20" as="geometry" />
        </mxCell>
        <mxCell id="7a8b956e7d50b54d-232" value="" style="align=left;strokeColor=#CCCCCC;html=1;" parent="1" vertex="1">
          <mxGeometry x="640" y="619" width="120" height="20" as="geometry" />
        </mxCell>
        <mxCell id="7a8b956e7d50b54d-233" value="" style="align=left;strokeColor=#CCCCCC;html=1;" parent="1" vertex="1">
          <mxGeometry x="640" y="639" width="120" height="20" as="geometry" />
        </mxCell>
        <mxCell id="7a8b956e7d50b54d-234" value="" style="align=left;strokeColor=#CCCCCC;html=1;" parent="1" vertex="1">
          <mxGeometry x="640" y="659" width="120" height="20" as="geometry" />
        </mxCell>
        <mxCell id="7a8b956e7d50b54d-235" value="" style="align=left;strokeColor=#CCCCCC;html=1;" parent="1" vertex="1">
          <mxGeometry x="640" y="679" width="120" height="20" as="geometry" />
        </mxCell>
        <mxCell id="7a8b956e7d50b54d-236" value="" style="align=left;strokeColor=#CCCCCC;html=1;" parent="1" vertex="1">
          <mxGeometry x="640" y="699" width="120" height="20" as="geometry" />
        </mxCell>
        <mxCell id="7a8b956e7d50b54d-237" value="" style="align=left;strokeColor=#CCCCCC;html=1;" parent="1" vertex="1">
          <mxGeometry x="640" y="719" width="120" height="20" as="geometry" />
        </mxCell>
        <mxCell id="7a8b956e7d50b54d-238" value="" style="align=left;strokeColor=#CCCCCC;html=1;" parent="1" vertex="1">
          <mxGeometry x="640" y="739" width="120" height="20" as="geometry" />
        </mxCell>
        <mxCell id="7a8b956e7d50b54d-239" value="" style="align=left;strokeColor=#CCCCCC;html=1;" parent="1" vertex="1">
          <mxGeometry x="640" y="759" width="120" height="20" as="geometry" />
        </mxCell>
        <mxCell id="7a8b956e7d50b54d-240" value="" style="align=left;strokeColor=#CCCCCC;html=1;" parent="1" vertex="1">
          <mxGeometry x="640" y="779" width="120" height="20" as="geometry" />
        </mxCell>
        <mxCell id="7a8b956e7d50b54d-241" value="" style="align=left;strokeColor=#CCCCCC;html=1;" parent="1" vertex="1">
          <mxGeometry x="760" y="479" width="120" height="20" as="geometry" />
        </mxCell>
        <mxCell id="7a8b956e7d50b54d-242" value="" style="align=left;strokeColor=#CCCCCC;html=1;" parent="1" vertex="1">
          <mxGeometry x="760" y="499" width="120" height="20" as="geometry" />
        </mxCell>
        <mxCell id="7a8b956e7d50b54d-243" value="" style="align=left;strokeColor=#CCCCCC;html=1;" parent="1" vertex="1">
          <mxGeometry x="760" y="519" width="120" height="20" as="geometry" />
        </mxCell>
        <mxCell id="7a8b956e7d50b54d-244" value="" style="align=left;strokeColor=#CCCCCC;html=1;" parent="1" vertex="1">
          <mxGeometry x="760" y="539" width="120" height="20" as="geometry" />
        </mxCell>
        <mxCell id="7a8b956e7d50b54d-245" value="" style="align=left;strokeColor=#CCCCCC;html=1;" parent="1" vertex="1">
          <mxGeometry x="760" y="559" width="120" height="20" as="geometry" />
        </mxCell>
        <mxCell id="7a8b956e7d50b54d-246" value="" style="align=left;strokeColor=#CCCCCC;html=1;" parent="1" vertex="1">
          <mxGeometry x="760" y="579" width="120" height="20" as="geometry" />
        </mxCell>
        <mxCell id="7a8b956e7d50b54d-247" value="" style="align=left;strokeColor=#CCCCCC;html=1;" parent="1" vertex="1">
          <mxGeometry x="760" y="599" width="120" height="20" as="geometry" />
        </mxCell>
        <mxCell id="7a8b956e7d50b54d-248" value="" style="align=left;strokeColor=#CCCCCC;html=1;" parent="1" vertex="1">
          <mxGeometry x="760" y="619" width="120" height="20" as="geometry" />
        </mxCell>
        <mxCell id="7a8b956e7d50b54d-249" value="" style="align=left;strokeColor=#CCCCCC;html=1;" parent="1" vertex="1">
          <mxGeometry x="760" y="639" width="120" height="20" as="geometry" />
        </mxCell>
        <mxCell id="7a8b956e7d50b54d-250" value="" style="align=left;strokeColor=#CCCCCC;html=1;" parent="1" vertex="1">
          <mxGeometry x="760" y="659" width="120" height="20" as="geometry" />
        </mxCell>
        <mxCell id="7a8b956e7d50b54d-251" value="" style="align=left;strokeColor=#CCCCCC;html=1;" parent="1" vertex="1">
          <mxGeometry x="760" y="679" width="120" height="20" as="geometry" />
        </mxCell>
        <mxCell id="7a8b956e7d50b54d-252" value="" style="align=left;strokeColor=#CCCCCC;html=1;" parent="1" vertex="1">
          <mxGeometry x="760" y="699" width="120" height="20" as="geometry" />
        </mxCell>
        <mxCell id="7a8b956e7d50b54d-253" value="" style="align=left;strokeColor=#CCCCCC;html=1;" parent="1" vertex="1">
          <mxGeometry x="760" y="719" width="120" height="20" as="geometry" />
        </mxCell>
        <mxCell id="7a8b956e7d50b54d-254" value="" style="align=left;strokeColor=#CCCCCC;html=1;" parent="1" vertex="1">
          <mxGeometry x="760" y="739" width="120" height="20" as="geometry" />
        </mxCell>
        <mxCell id="7a8b956e7d50b54d-255" value="" style="align=left;strokeColor=#CCCCCC;html=1;" parent="1" vertex="1">
          <mxGeometry x="760" y="759" width="120" height="20" as="geometry" />
        </mxCell>
        <mxCell id="7a8b956e7d50b54d-256" value="" style="align=left;strokeColor=#CCCCCC;html=1;" parent="1" vertex="1">
          <mxGeometry x="760" y="779" width="120" height="20" as="geometry" />
        </mxCell>
        <mxCell id="7a8b956e7d50b54d-257" value="" style="align=left;strokeColor=#CCCCCC;html=1;" parent="1" vertex="1">
          <mxGeometry x="880" y="479" width="120" height="20" as="geometry" />
        </mxCell>
        <mxCell id="7a8b956e7d50b54d-258" value="" style="align=left;strokeColor=#CCCCCC;html=1;" parent="1" vertex="1">
          <mxGeometry x="880" y="499" width="120" height="20" as="geometry" />
        </mxCell>
        <mxCell id="7a8b956e7d50b54d-259" value="" style="align=left;strokeColor=#CCCCCC;html=1;" parent="1" vertex="1">
          <mxGeometry x="880" y="519" width="120" height="20" as="geometry" />
        </mxCell>
        <mxCell id="7a8b956e7d50b54d-260" value="" style="align=left;strokeColor=#CCCCCC;html=1;" parent="1" vertex="1">
          <mxGeometry x="880" y="539" width="120" height="20" as="geometry" />
        </mxCell>
        <mxCell id="7a8b956e7d50b54d-261" value="" style="align=left;strokeColor=#CCCCCC;html=1;" parent="1" vertex="1">
          <mxGeometry x="880" y="559" width="120" height="20" as="geometry" />
        </mxCell>
        <mxCell id="7a8b956e7d50b54d-262" value="" style="align=left;strokeColor=#CCCCCC;html=1;" parent="1" vertex="1">
          <mxGeometry x="880" y="579" width="120" height="20" as="geometry" />
        </mxCell>
        <mxCell id="7a8b956e7d50b54d-263" value="" style="align=left;strokeColor=#CCCCCC;html=1;" parent="1" vertex="1">
          <mxGeometry x="880" y="599" width="120" height="20" as="geometry" />
        </mxCell>
        <mxCell id="7a8b956e7d50b54d-264" value="" style="align=left;strokeColor=#CCCCCC;html=1;" parent="1" vertex="1">
          <mxGeometry x="880" y="619" width="120" height="20" as="geometry" />
        </mxCell>
        <mxCell id="7a8b956e7d50b54d-265" value="" style="align=left;strokeColor=#CCCCCC;html=1;" parent="1" vertex="1">
          <mxGeometry x="880" y="639" width="120" height="20" as="geometry" />
        </mxCell>
        <mxCell id="7a8b956e7d50b54d-266" value="" style="align=left;strokeColor=#CCCCCC;html=1;" parent="1" vertex="1">
          <mxGeometry x="880" y="659" width="120" height="20" as="geometry" />
        </mxCell>
        <mxCell id="7a8b956e7d50b54d-267" value="" style="align=left;strokeColor=#CCCCCC;html=1;" parent="1" vertex="1">
          <mxGeometry x="880" y="679" width="120" height="20" as="geometry" />
        </mxCell>
        <mxCell id="7a8b956e7d50b54d-268" value="" style="align=left;strokeColor=#CCCCCC;html=1;" parent="1" vertex="1">
          <mxGeometry x="880" y="699" width="120" height="20" as="geometry" />
        </mxCell>
        <mxCell id="7a8b956e7d50b54d-269" value="" style="align=left;strokeColor=#CCCCCC;html=1;" parent="1" vertex="1">
          <mxGeometry x="880" y="719" width="120" height="20" as="geometry" />
        </mxCell>
        <mxCell id="7a8b956e7d50b54d-270" value="" style="align=left;strokeColor=#CCCCCC;html=1;" parent="1" vertex="1">
          <mxGeometry x="880" y="739" width="120" height="20" as="geometry" />
        </mxCell>
        <mxCell id="7a8b956e7d50b54d-271" value="" style="align=left;strokeColor=#CCCCCC;html=1;" parent="1" vertex="1">
          <mxGeometry x="880" y="759" width="120" height="20" as="geometry" />
        </mxCell>
        <mxCell id="7a8b956e7d50b54d-272" value="" style="align=left;strokeColor=#CCCCCC;html=1;" parent="1" vertex="1">
          <mxGeometry x="880" y="779" width="120" height="20" as="geometry" />
        </mxCell>
        <mxCell id="7a8b956e7d50b54d-273" value="" style="align=left;strokeColor=#CCCCCC;html=1;" parent="1" vertex="1">
          <mxGeometry x="1000" y="479" width="120" height="20" as="geometry" />
        </mxCell>
        <mxCell id="7a8b956e7d50b54d-274" value="" style="align=left;strokeColor=#CCCCCC;html=1;" parent="1" vertex="1">
          <mxGeometry x="1000" y="499" width="120" height="20" as="geometry" />
        </mxCell>
        <mxCell id="7a8b956e7d50b54d-275" value="" style="align=left;strokeColor=#CCCCCC;html=1;" parent="1" vertex="1">
          <mxGeometry x="1000" y="519" width="120" height="20" as="geometry" />
        </mxCell>
        <mxCell id="7a8b956e7d50b54d-276" value="" style="align=left;strokeColor=#CCCCCC;html=1;" parent="1" vertex="1">
          <mxGeometry x="1000" y="539" width="120" height="20" as="geometry" />
        </mxCell>
        <mxCell id="7a8b956e7d50b54d-277" value="" style="align=left;strokeColor=#CCCCCC;html=1;" parent="1" vertex="1">
          <mxGeometry x="1000" y="559" width="120" height="20" as="geometry" />
        </mxCell>
        <mxCell id="7a8b956e7d50b54d-278" value="" style="align=left;strokeColor=#CCCCCC;html=1;" parent="1" vertex="1">
          <mxGeometry x="1000" y="579" width="120" height="20" as="geometry" />
        </mxCell>
        <mxCell id="7a8b956e7d50b54d-279" value="" style="align=left;strokeColor=#CCCCCC;html=1;" parent="1" vertex="1">
          <mxGeometry x="1000" y="599" width="120" height="20" as="geometry" />
        </mxCell>
        <mxCell id="7a8b956e7d50b54d-280" value="" style="align=left;strokeColor=#CCCCCC;html=1;" parent="1" vertex="1">
          <mxGeometry x="1000" y="619" width="120" height="20" as="geometry" />
        </mxCell>
        <mxCell id="7a8b956e7d50b54d-281" value="" style="align=left;strokeColor=#CCCCCC;html=1;" parent="1" vertex="1">
          <mxGeometry x="1000" y="639" width="120" height="20" as="geometry" />
        </mxCell>
        <mxCell id="7a8b956e7d50b54d-282" value="" style="align=left;strokeColor=#CCCCCC;html=1;" parent="1" vertex="1">
          <mxGeometry x="1000" y="659" width="120" height="20" as="geometry" />
        </mxCell>
        <mxCell id="7a8b956e7d50b54d-283" value="" style="align=left;strokeColor=#CCCCCC;html=1;" parent="1" vertex="1">
          <mxGeometry x="1000" y="679" width="120" height="20" as="geometry" />
        </mxCell>
        <mxCell id="7a8b956e7d50b54d-284" value="" style="align=left;strokeColor=#CCCCCC;html=1;" parent="1" vertex="1">
          <mxGeometry x="1000" y="699" width="120" height="20" as="geometry" />
        </mxCell>
        <mxCell id="7a8b956e7d50b54d-285" value="" style="align=left;strokeColor=#CCCCCC;html=1;" parent="1" vertex="1">
          <mxGeometry x="1000" y="719" width="120" height="20" as="geometry" />
        </mxCell>
        <mxCell id="7a8b956e7d50b54d-286" value="" style="align=left;strokeColor=#CCCCCC;html=1;" parent="1" vertex="1">
          <mxGeometry x="1000" y="739" width="120" height="20" as="geometry" />
        </mxCell>
        <mxCell id="7a8b956e7d50b54d-287" value="" style="align=left;strokeColor=#CCCCCC;html=1;" parent="1" vertex="1">
          <mxGeometry x="1000" y="759" width="120" height="20" as="geometry" />
        </mxCell>
        <mxCell id="7a8b956e7d50b54d-288" value="" style="align=left;strokeColor=#CCCCCC;html=1;" parent="1" vertex="1">
          <mxGeometry x="1000" y="779" width="120" height="20" as="geometry" />
        </mxCell>
        <mxCell id="7a8b956e7d50b54d-289" value="" style="align=left;strokeColor=#CCCCCC;html=1;" parent="1" vertex="1">
          <mxGeometry x="1120" y="479" width="120" height="20" as="geometry" />
        </mxCell>
        <mxCell id="7a8b956e7d50b54d-290" value="" style="align=left;strokeColor=#CCCCCC;html=1;" parent="1" vertex="1">
          <mxGeometry x="1120" y="499" width="120" height="20" as="geometry" />
        </mxCell>
        <mxCell id="7a8b956e7d50b54d-291" value="" style="align=left;strokeColor=#CCCCCC;html=1;" parent="1" vertex="1">
          <mxGeometry x="1120" y="519" width="120" height="20" as="geometry" />
        </mxCell>
        <mxCell id="7a8b956e7d50b54d-292" value="" style="align=left;strokeColor=#CCCCCC;html=1;" parent="1" vertex="1">
          <mxGeometry x="1120" y="539" width="120" height="20" as="geometry" />
        </mxCell>
        <mxCell id="7a8b956e7d50b54d-293" value="" style="align=left;strokeColor=#CCCCCC;html=1;" parent="1" vertex="1">
          <mxGeometry x="1120" y="559" width="120" height="20" as="geometry" />
        </mxCell>
        <mxCell id="7a8b956e7d50b54d-294" value="" style="align=left;strokeColor=#CCCCCC;html=1;" parent="1" vertex="1">
          <mxGeometry x="1120" y="579" width="120" height="20" as="geometry" />
        </mxCell>
        <mxCell id="7a8b956e7d50b54d-295" value="" style="align=left;strokeColor=#CCCCCC;html=1;" parent="1" vertex="1">
          <mxGeometry x="1120" y="599" width="120" height="20" as="geometry" />
        </mxCell>
        <mxCell id="7a8b956e7d50b54d-296" value="" style="align=left;strokeColor=#CCCCCC;html=1;" parent="1" vertex="1">
          <mxGeometry x="1120" y="619" width="120" height="20" as="geometry" />
        </mxCell>
        <mxCell id="7a8b956e7d50b54d-297" value="" style="align=left;strokeColor=#CCCCCC;html=1;" parent="1" vertex="1">
          <mxGeometry x="1120" y="639" width="120" height="20" as="geometry" />
        </mxCell>
        <mxCell id="7a8b956e7d50b54d-298" value="" style="align=left;strokeColor=#CCCCCC;html=1;" parent="1" vertex="1">
          <mxGeometry x="1120" y="659" width="120" height="20" as="geometry" />
        </mxCell>
        <mxCell id="7a8b956e7d50b54d-299" value="" style="align=left;strokeColor=#CCCCCC;html=1;" parent="1" vertex="1">
          <mxGeometry x="1120" y="679" width="120" height="20" as="geometry" />
        </mxCell>
        <mxCell id="7a8b956e7d50b54d-300" value="" style="align=left;strokeColor=#CCCCCC;html=1;" parent="1" vertex="1">
          <mxGeometry x="1120" y="699" width="120" height="20" as="geometry" />
        </mxCell>
        <mxCell id="7a8b956e7d50b54d-301" value="" style="align=left;strokeColor=#CCCCCC;html=1;" parent="1" vertex="1">
          <mxGeometry x="1120" y="719" width="120" height="20" as="geometry" />
        </mxCell>
        <mxCell id="7a8b956e7d50b54d-302" value="" style="align=left;strokeColor=#CCCCCC;html=1;" parent="1" vertex="1">
          <mxGeometry x="1120" y="739" width="120" height="20" as="geometry" />
        </mxCell>
        <mxCell id="7a8b956e7d50b54d-303" value="" style="align=left;strokeColor=#CCCCCC;html=1;" parent="1" vertex="1">
          <mxGeometry x="1120" y="759" width="120" height="20" as="geometry" />
        </mxCell>
        <mxCell id="7a8b956e7d50b54d-304" value="" style="align=left;strokeColor=#CCCCCC;html=1;" parent="1" vertex="1">
          <mxGeometry x="1120" y="779" width="120" height="20" as="geometry" />
        </mxCell>
        <mxCell id="7a8b956e7d50b54d-305" value="" style="align=left;strokeColor=#CCCCCC;html=1;" parent="1" vertex="1">
          <mxGeometry x="1240" y="479" width="120" height="20" as="geometry" />
        </mxCell>
        <mxCell id="7a8b956e7d50b54d-306" value="" style="align=left;strokeColor=#CCCCCC;html=1;" parent="1" vertex="1">
          <mxGeometry x="1240" y="499" width="120" height="20" as="geometry" />
        </mxCell>
        <mxCell id="7a8b956e7d50b54d-307" value="" style="align=left;strokeColor=#CCCCCC;html=1;" parent="1" vertex="1">
          <mxGeometry x="1240" y="519" width="120" height="20" as="geometry" />
        </mxCell>
        <mxCell id="7a8b956e7d50b54d-308" value="" style="align=left;strokeColor=#CCCCCC;html=1;" parent="1" vertex="1">
          <mxGeometry x="1240" y="539" width="120" height="20" as="geometry" />
        </mxCell>
        <mxCell id="7a8b956e7d50b54d-309" value="" style="align=left;strokeColor=#CCCCCC;html=1;" parent="1" vertex="1">
          <mxGeometry x="1240" y="559" width="120" height="20" as="geometry" />
        </mxCell>
        <mxCell id="7a8b956e7d50b54d-310" value="" style="align=left;strokeColor=#CCCCCC;html=1;" parent="1" vertex="1">
          <mxGeometry x="1240" y="579" width="120" height="20" as="geometry" />
        </mxCell>
        <mxCell id="7a8b956e7d50b54d-311" value="" style="align=left;strokeColor=#CCCCCC;html=1;" parent="1" vertex="1">
          <mxGeometry x="1240" y="599" width="120" height="20" as="geometry" />
        </mxCell>
        <mxCell id="7a8b956e7d50b54d-312" value="" style="align=left;strokeColor=#CCCCCC;html=1;" parent="1" vertex="1">
          <mxGeometry x="1240" y="619" width="120" height="20" as="geometry" />
        </mxCell>
        <mxCell id="7a8b956e7d50b54d-313" value="" style="align=left;strokeColor=#CCCCCC;html=1;" parent="1" vertex="1">
          <mxGeometry x="1240" y="639" width="120" height="20" as="geometry" />
        </mxCell>
        <mxCell id="7a8b956e7d50b54d-314" value="" style="align=left;strokeColor=#CCCCCC;html=1;" parent="1" vertex="1">
          <mxGeometry x="1240" y="659" width="120" height="20" as="geometry" />
        </mxCell>
        <mxCell id="7a8b956e7d50b54d-315" value="" style="align=left;strokeColor=#CCCCCC;html=1;" parent="1" vertex="1">
          <mxGeometry x="1240" y="679" width="120" height="20" as="geometry" />
        </mxCell>
        <mxCell id="7a8b956e7d50b54d-316" value="" style="align=left;strokeColor=#CCCCCC;html=1;" parent="1" vertex="1">
          <mxGeometry x="1240" y="699" width="120" height="20" as="geometry" />
        </mxCell>
        <mxCell id="7a8b956e7d50b54d-317" value="" style="align=left;strokeColor=#CCCCCC;html=1;" parent="1" vertex="1">
          <mxGeometry x="1240" y="719" width="120" height="20" as="geometry" />
        </mxCell>
        <mxCell id="7a8b956e7d50b54d-318" value="" style="align=left;strokeColor=#CCCCCC;html=1;" parent="1" vertex="1">
          <mxGeometry x="1240" y="739" width="120" height="20" as="geometry" />
        </mxCell>
        <mxCell id="7a8b956e7d50b54d-319" value="" style="align=left;strokeColor=#CCCCCC;html=1;" parent="1" vertex="1">
          <mxGeometry x="1240" y="759" width="120" height="20" as="geometry" />
        </mxCell>
        <mxCell id="7a8b956e7d50b54d-320" value="" style="align=left;strokeColor=#CCCCCC;html=1;" parent="1" vertex="1">
          <mxGeometry x="1240" y="779" width="120" height="20" as="geometry" />
        </mxCell>
        <mxCell id="7a8b956e7d50b54d-321" value="" style="align=left;strokeColor=#CCCCCC;html=1;" parent="1" vertex="1">
          <mxGeometry x="1360" y="479" width="120" height="20" as="geometry" />
        </mxCell>
        <mxCell id="7a8b956e7d50b54d-322" value="" style="align=left;strokeColor=#CCCCCC;html=1;" parent="1" vertex="1">
          <mxGeometry x="1360" y="499" width="120" height="20" as="geometry" />
        </mxCell>
        <mxCell id="7a8b956e7d50b54d-323" value="" style="align=left;strokeColor=#CCCCCC;html=1;" parent="1" vertex="1">
          <mxGeometry x="1360" y="519" width="120" height="20" as="geometry" />
        </mxCell>
        <mxCell id="7a8b956e7d50b54d-324" value="" style="align=left;strokeColor=#CCCCCC;html=1;" parent="1" vertex="1">
          <mxGeometry x="1360" y="539" width="120" height="20" as="geometry" />
        </mxCell>
        <mxCell id="7a8b956e7d50b54d-325" value="" style="align=left;strokeColor=#CCCCCC;html=1;" parent="1" vertex="1">
          <mxGeometry x="1360" y="559" width="120" height="20" as="geometry" />
        </mxCell>
        <mxCell id="7a8b956e7d50b54d-326" value="" style="align=left;strokeColor=#CCCCCC;html=1;" parent="1" vertex="1">
          <mxGeometry x="1360" y="579" width="120" height="20" as="geometry" />
        </mxCell>
        <mxCell id="7a8b956e7d50b54d-327" value="" style="align=left;strokeColor=#CCCCCC;html=1;" parent="1" vertex="1">
          <mxGeometry x="1360" y="599" width="120" height="20" as="geometry" />
        </mxCell>
        <mxCell id="7a8b956e7d50b54d-328" value="" style="align=left;strokeColor=#CCCCCC;html=1;" parent="1" vertex="1">
          <mxGeometry x="1360" y="619" width="120" height="20" as="geometry" />
        </mxCell>
        <mxCell id="7a8b956e7d50b54d-329" value="" style="align=left;strokeColor=#CCCCCC;html=1;" parent="1" vertex="1">
          <mxGeometry x="1360" y="639" width="120" height="20" as="geometry" />
        </mxCell>
        <mxCell id="7a8b956e7d50b54d-330" value="" style="align=left;strokeColor=#CCCCCC;html=1;" parent="1" vertex="1">
          <mxGeometry x="1360" y="659" width="120" height="20" as="geometry" />
        </mxCell>
        <mxCell id="7a8b956e7d50b54d-331" value="" style="align=left;strokeColor=#CCCCCC;html=1;" parent="1" vertex="1">
          <mxGeometry x="1360" y="679" width="120" height="20" as="geometry" />
        </mxCell>
        <mxCell id="7a8b956e7d50b54d-332" value="" style="align=left;strokeColor=#CCCCCC;html=1;" parent="1" vertex="1">
          <mxGeometry x="1360" y="699" width="120" height="20" as="geometry" />
        </mxCell>
        <mxCell id="7a8b956e7d50b54d-333" value="" style="align=left;strokeColor=#CCCCCC;html=1;" parent="1" vertex="1">
          <mxGeometry x="1360" y="719" width="120" height="20" as="geometry" />
        </mxCell>
        <mxCell id="7a8b956e7d50b54d-334" value="" style="align=left;strokeColor=#CCCCCC;html=1;" parent="1" vertex="1">
          <mxGeometry x="1360" y="739" width="120" height="20" as="geometry" />
        </mxCell>
        <mxCell id="7a8b956e7d50b54d-335" value="" style="align=left;strokeColor=#CCCCCC;html=1;" parent="1" vertex="1">
          <mxGeometry x="1360" y="759" width="120" height="20" as="geometry" />
        </mxCell>
        <mxCell id="7a8b956e7d50b54d-336" value="" style="align=left;strokeColor=#CCCCCC;html=1;" parent="1" vertex="1">
          <mxGeometry x="1360" y="779" width="120" height="20" as="geometry" />
        </mxCell>
        <mxCell id="7a8b956e7d50b54d-337" value="" style="align=left;strokeColor=#CCCCCC;html=1;" parent="1" vertex="1">
          <mxGeometry x="1480" y="479" width="120" height="20" as="geometry" />
        </mxCell>
        <mxCell id="7a8b956e7d50b54d-338" value="" style="align=left;strokeColor=#CCCCCC;html=1;" parent="1" vertex="1">
          <mxGeometry x="1480" y="499" width="120" height="20" as="geometry" />
        </mxCell>
        <mxCell id="7a8b956e7d50b54d-339" value="" style="align=left;strokeColor=#CCCCCC;html=1;" parent="1" vertex="1">
          <mxGeometry x="1480" y="519" width="120" height="20" as="geometry" />
        </mxCell>
        <mxCell id="7a8b956e7d50b54d-340" value="" style="align=left;strokeColor=#CCCCCC;html=1;" parent="1" vertex="1">
          <mxGeometry x="1480" y="539" width="120" height="20" as="geometry" />
        </mxCell>
        <mxCell id="7a8b956e7d50b54d-341" value="" style="align=left;strokeColor=#CCCCCC;html=1;" parent="1" vertex="1">
          <mxGeometry x="1480" y="559" width="120" height="20" as="geometry" />
        </mxCell>
        <mxCell id="7a8b956e7d50b54d-342" value="" style="align=left;strokeColor=#CCCCCC;html=1;" parent="1" vertex="1">
          <mxGeometry x="1480" y="579" width="120" height="20" as="geometry" />
        </mxCell>
        <mxCell id="7a8b956e7d50b54d-343" value="" style="align=left;strokeColor=#CCCCCC;html=1;" parent="1" vertex="1">
          <mxGeometry x="1480" y="599" width="120" height="20" as="geometry" />
        </mxCell>
        <mxCell id="7a8b956e7d50b54d-344" value="" style="align=left;strokeColor=#CCCCCC;html=1;" parent="1" vertex="1">
          <mxGeometry x="1480" y="619" width="120" height="20" as="geometry" />
        </mxCell>
        <mxCell id="7a8b956e7d50b54d-345" value="" style="align=left;strokeColor=#CCCCCC;html=1;" parent="1" vertex="1">
          <mxGeometry x="1480" y="639" width="120" height="20" as="geometry" />
        </mxCell>
        <mxCell id="7a8b956e7d50b54d-346" value="" style="align=left;strokeColor=#CCCCCC;html=1;" parent="1" vertex="1">
          <mxGeometry x="1480" y="659" width="120" height="20" as="geometry" />
        </mxCell>
        <mxCell id="7a8b956e7d50b54d-347" value="" style="align=left;strokeColor=#CCCCCC;html=1;" parent="1" vertex="1">
          <mxGeometry x="1480" y="679" width="120" height="20" as="geometry" />
        </mxCell>
        <mxCell id="7a8b956e7d50b54d-348" value="" style="align=left;strokeColor=#CCCCCC;html=1;" parent="1" vertex="1">
          <mxGeometry x="1480" y="699" width="120" height="20" as="geometry" />
        </mxCell>
        <mxCell id="7a8b956e7d50b54d-349" value="" style="align=left;strokeColor=#CCCCCC;html=1;" parent="1" vertex="1">
          <mxGeometry x="1480" y="719" width="120" height="20" as="geometry" />
        </mxCell>
        <mxCell id="7a8b956e7d50b54d-350" value="" style="align=left;strokeColor=#CCCCCC;html=1;" parent="1" vertex="1">
          <mxGeometry x="1480" y="739" width="120" height="20" as="geometry" />
        </mxCell>
        <mxCell id="7a8b956e7d50b54d-351" value="" style="align=left;strokeColor=#CCCCCC;html=1;" parent="1" vertex="1">
          <mxGeometry x="1480" y="759" width="120" height="20" as="geometry" />
        </mxCell>
        <mxCell id="7a8b956e7d50b54d-352" value="" style="align=left;strokeColor=#CCCCCC;html=1;" parent="1" vertex="1">
          <mxGeometry x="1480" y="779" width="120" height="20" as="geometry" />
        </mxCell>
        <mxCell id="7a8b956e7d50b54d-100" value="W1" style="strokeWidth=1;fontStyle=0;html=1;" parent="1" vertex="1">
          <mxGeometry x="400" y="459" width="30" height="20" as="geometry" />
        </mxCell>
        <mxCell id="7a8b956e7d50b54d-101" value="W2" style="strokeWidth=1;fontStyle=0;html=1;" parent="1" vertex="1">
          <mxGeometry x="430" y="459" width="30" height="20" as="geometry" />
        </mxCell>
        <mxCell id="7a8b956e7d50b54d-102" value="W3" style="strokeWidth=1;fontStyle=0;html=1;" parent="1" vertex="1">
          <mxGeometry x="460" y="459" width="30" height="20" as="geometry" />
        </mxCell>
        <mxCell id="7a8b956e7d50b54d-103" value="W4" style="strokeWidth=1;fontStyle=0;html=1;" parent="1" vertex="1">
          <mxGeometry x="490" y="459" width="30" height="20" as="geometry" />
        </mxCell>
        <mxCell id="7a8b956e7d50b54d-105" value="W1" style="strokeWidth=1;fontStyle=0;html=1;" parent="1" vertex="1">
          <mxGeometry x="520" y="459" width="30" height="20" as="geometry" />
        </mxCell>
        <mxCell id="7a8b956e7d50b54d-106" value="W2" style="strokeWidth=1;fontStyle=0;html=1;" parent="1" vertex="1">
          <mxGeometry x="550" y="459" width="30" height="20" as="geometry" />
        </mxCell>
        <mxCell id="7a8b956e7d50b54d-107" value="W3" style="strokeWidth=1;fontStyle=0;html=1;" parent="1" vertex="1">
          <mxGeometry x="580" y="459" width="30" height="20" as="geometry" />
        </mxCell>
        <mxCell id="7a8b956e7d50b54d-108" value="W4" style="strokeWidth=1;fontStyle=0;html=1;" parent="1" vertex="1">
          <mxGeometry x="610" y="459" width="30" height="20" as="geometry" />
        </mxCell>
        <mxCell id="7a8b956e7d50b54d-110" value="W1" style="strokeWidth=1;fontStyle=0;html=1;" parent="1" vertex="1">
          <mxGeometry x="640" y="459" width="30" height="20" as="geometry" />
        </mxCell>
        <mxCell id="7a8b956e7d50b54d-111" value="W2" style="strokeWidth=1;fontStyle=0;html=1;" parent="1" vertex="1">
          <mxGeometry x="670" y="459" width="30" height="20" as="geometry" />
        </mxCell>
        <mxCell id="7a8b956e7d50b54d-112" value="W3" style="strokeWidth=1;fontStyle=0;html=1;" parent="1" vertex="1">
          <mxGeometry x="700" y="459" width="30" height="20" as="geometry" />
        </mxCell>
        <mxCell id="7a8b956e7d50b54d-113" value="W4" style="strokeWidth=1;fontStyle=0;html=1;" parent="1" vertex="1">
          <mxGeometry x="730" y="459" width="30" height="20" as="geometry" />
        </mxCell>
        <mxCell id="7a8b956e7d50b54d-115" value="W1" style="strokeWidth=1;fontStyle=0;html=1;" parent="1" vertex="1">
          <mxGeometry x="760" y="459" width="30" height="20" as="geometry" />
        </mxCell>
        <mxCell id="7a8b956e7d50b54d-116" value="W2" style="strokeWidth=1;fontStyle=0;html=1;" parent="1" vertex="1">
          <mxGeometry x="790" y="459" width="30" height="20" as="geometry" />
        </mxCell>
        <mxCell id="7a8b956e7d50b54d-117" value="W3" style="strokeWidth=1;fontStyle=0;html=1;" parent="1" vertex="1">
          <mxGeometry x="820" y="459" width="30" height="20" as="geometry" />
        </mxCell>
        <mxCell id="7a8b956e7d50b54d-118" value="W4" style="strokeWidth=1;fontStyle=0;html=1;" parent="1" vertex="1">
          <mxGeometry x="850" y="459" width="30" height="20" as="geometry" />
        </mxCell>
        <mxCell id="7a8b956e7d50b54d-120" value="W1" style="strokeWidth=1;fontStyle=0;html=1;" parent="1" vertex="1">
          <mxGeometry x="880" y="459" width="30" height="20" as="geometry" />
        </mxCell>
        <mxCell id="7a8b956e7d50b54d-121" value="W2" style="strokeWidth=1;fontStyle=0;html=1;" parent="1" vertex="1">
          <mxGeometry x="910" y="459" width="30" height="20" as="geometry" />
        </mxCell>
        <mxCell id="7a8b956e7d50b54d-122" value="W3" style="strokeWidth=1;fontStyle=0;html=1;" parent="1" vertex="1">
          <mxGeometry x="940" y="459" width="30" height="20" as="geometry" />
        </mxCell>
        <mxCell id="7a8b956e7d50b54d-123" value="W4" style="strokeWidth=1;fontStyle=0;html=1;" parent="1" vertex="1">
          <mxGeometry x="970" y="459" width="30" height="20" as="geometry" />
        </mxCell>
        <mxCell id="7a8b956e7d50b54d-125" value="W1" style="strokeWidth=1;fontStyle=0;html=1;" parent="1" vertex="1">
          <mxGeometry x="1000" y="459" width="30" height="20" as="geometry" />
        </mxCell>
        <mxCell id="7a8b956e7d50b54d-126" value="W2" style="strokeWidth=1;fontStyle=0;html=1;" parent="1" vertex="1">
          <mxGeometry x="1030" y="459" width="30" height="20" as="geometry" />
        </mxCell>
        <mxCell id="7a8b956e7d50b54d-127" value="W3" style="strokeWidth=1;fontStyle=0;html=1;" parent="1" vertex="1">
          <mxGeometry x="1060" y="459" width="30" height="20" as="geometry" />
        </mxCell>
        <mxCell id="7a8b956e7d50b54d-128" value="W4" style="strokeWidth=1;fontStyle=0;html=1;" parent="1" vertex="1">
          <mxGeometry x="1090" y="459" width="30" height="20" as="geometry" />
        </mxCell>
        <mxCell id="7a8b956e7d50b54d-130" value="W1" style="strokeWidth=1;fontStyle=0;html=1;" parent="1" vertex="1">
          <mxGeometry x="1120" y="459" width="30" height="20" as="geometry" />
        </mxCell>
        <mxCell id="7a8b956e7d50b54d-131" value="W2" style="strokeWidth=1;fontStyle=0;html=1;" parent="1" vertex="1">
          <mxGeometry x="1150" y="459" width="30" height="20" as="geometry" />
        </mxCell>
        <mxCell id="7a8b956e7d50b54d-132" value="W3" style="strokeWidth=1;fontStyle=0;html=1;" parent="1" vertex="1">
          <mxGeometry x="1180" y="459" width="30" height="20" as="geometry" />
        </mxCell>
        <mxCell id="7a8b956e7d50b54d-133" value="W4" style="strokeWidth=1;fontStyle=0;html=1;" parent="1" vertex="1">
          <mxGeometry x="1210" y="459" width="30" height="20" as="geometry" />
        </mxCell>
        <mxCell id="7a8b956e7d50b54d-135" value="W1" style="strokeWidth=1;fontStyle=0;html=1;" parent="1" vertex="1">
          <mxGeometry x="1240" y="459" width="30" height="20" as="geometry" />
        </mxCell>
        <mxCell id="7a8b956e7d50b54d-136" value="W2" style="strokeWidth=1;fontStyle=0;html=1;" parent="1" vertex="1">
          <mxGeometry x="1270" y="459" width="30" height="20" as="geometry" />
        </mxCell>
        <mxCell id="7a8b956e7d50b54d-137" value="W3" style="strokeWidth=1;fontStyle=0;html=1;" parent="1" vertex="1">
          <mxGeometry x="1300" y="459" width="30" height="20" as="geometry" />
        </mxCell>
        <mxCell id="7a8b956e7d50b54d-138" value="W4" style="strokeWidth=1;fontStyle=0;html=1;" parent="1" vertex="1">
          <mxGeometry x="1330" y="459" width="30" height="20" as="geometry" />
        </mxCell>
        <mxCell id="7a8b956e7d50b54d-140" value="W1" style="strokeWidth=1;fontStyle=0;html=1;" parent="1" vertex="1">
          <mxGeometry x="1360" y="459" width="30" height="20" as="geometry" />
        </mxCell>
        <mxCell id="7a8b956e7d50b54d-141" value="W2" style="strokeWidth=1;fontStyle=0;html=1;" parent="1" vertex="1">
          <mxGeometry x="1390" y="459" width="30" height="20" as="geometry" />
        </mxCell>
        <mxCell id="7a8b956e7d50b54d-142" value="W3" style="strokeWidth=1;fontStyle=0;html=1;" parent="1" vertex="1">
          <mxGeometry x="1420" y="459" width="30" height="20" as="geometry" />
        </mxCell>
        <mxCell id="7a8b956e7d50b54d-143" value="W4" style="strokeWidth=1;fontStyle=0;html=1;" parent="1" vertex="1">
          <mxGeometry x="1450" y="459" width="30" height="20" as="geometry" />
        </mxCell>
        <mxCell id="7a8b956e7d50b54d-146" value="W1" style="strokeWidth=1;fontStyle=0;html=1;" parent="1" vertex="1">
          <mxGeometry x="280" y="459" width="30" height="20" as="geometry" />
        </mxCell>
        <mxCell id="7a8b956e7d50b54d-147" value="W2" style="strokeWidth=1;fontStyle=0;html=1;" parent="1" vertex="1">
          <mxGeometry x="310" y="459" width="30" height="20" as="geometry" />
        </mxCell>
        <mxCell id="7a8b956e7d50b54d-148" value="W3" style="strokeWidth=1;fontStyle=0;html=1;" parent="1" vertex="1">
          <mxGeometry x="340" y="459" width="30" height="20" as="geometry" />
        </mxCell>
        <mxCell id="7a8b956e7d50b54d-149" value="W4" style="strokeWidth=1;fontStyle=0;html=1;" parent="1" vertex="1">
          <mxGeometry x="370" y="459" width="30" height="20" as="geometry" />
        </mxCell>
        <mxCell id="7a8b956e7d50b54d-152" value="W1" style="strokeWidth=1;fontStyle=0;html=1;" parent="1" vertex="1">
          <mxGeometry x="160" y="459" width="30" height="20" as="geometry" />
        </mxCell>
        <mxCell id="7a8b956e7d50b54d-153" value="W2" style="strokeWidth=1;fontStyle=0;html=1;" parent="1" vertex="1">
          <mxGeometry x="190" y="459" width="30" height="20" as="geometry" />
        </mxCell>
        <mxCell id="7a8b956e7d50b54d-154" value="W3" style="strokeWidth=1;fontStyle=0;html=1;" parent="1" vertex="1">
          <mxGeometry x="220" y="459" width="30" height="20" as="geometry" />
        </mxCell>
        <mxCell id="7a8b956e7d50b54d-155" value="W4" style="strokeWidth=1;fontStyle=0;html=1;" parent="1" vertex="1">
          <mxGeometry x="250" y="459" width="30" height="20" as="geometry" />
        </mxCell>
        <mxCell id="7a8b956e7d50b54d-158" value="W1" style="strokeWidth=1;fontStyle=0;html=1;" parent="1" vertex="1">
          <mxGeometry x="1480" y="459" width="30" height="20" as="geometry" />
        </mxCell>
        <mxCell id="7a8b956e7d50b54d-159" value="W2" style="strokeWidth=1;fontStyle=0;html=1;" parent="1" vertex="1">
          <mxGeometry x="1510" y="459" width="30" height="20" as="geometry" />
        </mxCell>
        <mxCell id="7a8b956e7d50b54d-160" value="W3" style="strokeWidth=1;fontStyle=0;html=1;" parent="1" vertex="1">
          <mxGeometry x="1540" y="459" width="30" height="20" as="geometry" />
        </mxCell>
        <mxCell id="7a8b956e7d50b54d-161" value="W4" style="strokeWidth=1;fontStyle=0;html=1;" parent="1" vertex="1">
          <mxGeometry x="1570" y="459" width="30" height="20" as="geometry" />
        </mxCell>
        <mxCell id="7a8b956e7d50b54d-353" value="Формирование&lt;br&gt;Базового DataLake" style="align=left;strokeColor=#6c8ebf;html=1;fillColor=#dae8fc;" parent="1" vertex="1">
          <mxGeometry x="160" y="479" width="90" height="20" as="geometry" />
        </mxCell>
        <mxCell id="oRe7QSKqNAqXRH3h8ggM-2" value="Интеграция&amp;nbsp;&lt;br&gt;приложений&amp;nbsp;&lt;br&gt;с DataLake" style="align=left;strokeColor=#6c8ebf;html=1;fillColor=#dae8fc;" vertex="1" parent="1">
          <mxGeometry x="250" y="499" width="90" height="141" as="geometry" />
        </mxCell>
        <mxCell id="oRe7QSKqNAqXRH3h8ggM-3" value="Ресерч миграции&lt;br&gt;на соверменную&amp;nbsp;&lt;br&gt;DWH" style="align=left;strokeColor=#6c8ebf;html=1;fillColor=#dae8fc;" vertex="1" parent="1">
          <mxGeometry x="160" y="579" width="90" height="51" as="geometry" />
        </mxCell>
        <mxCell id="oRe7QSKqNAqXRH3h8ggM-4" value="Миграция на новый&lt;br&gt;DWH" style="align=left;strokeColor=#6c8ebf;html=1;fillColor=#dae8fc;" vertex="1" parent="1">
          <mxGeometry x="340" y="499" width="130" height="51" as="geometry" />
        </mxCell>
        <mxCell id="oRe7QSKqNAqXRH3h8ggM-5" value="Интеграция ИИ сервисов&lt;br&gt;И Datalake" style="align=left;strokeColor=#6c8ebf;html=1;fillColor=#dae8fc;" vertex="1" parent="1">
          <mxGeometry x="340" y="589" width="130" height="51" as="geometry" />
        </mxCell>
        <mxCell id="oRe7QSKqNAqXRH3h8ggM-6" value="Поднимаем&lt;br&gt;&amp;nbsp;Apache Kafka&lt;br&gt;для стриминга" style="align=left;strokeColor=#6c8ebf;html=1;fillColor=#dae8fc;" vertex="1" parent="1">
          <mxGeometry x="470" y="499" width="80" height="51" as="geometry" />
        </mxCell>
        <mxCell id="oRe7QSKqNAqXRH3h8ggM-7" value="Настраиваем запись&amp;nbsp;&lt;br&gt;событий в Apache&lt;br&gt;Kafka из приложений" style="align=left;strokeColor=#6c8ebf;html=1;fillColor=#dae8fc;" vertex="1" parent="1">
          <mxGeometry x="550" y="550" width="115" height="51" as="geometry" />
        </mxCell>
        <mxCell id="oRe7QSKqNAqXRH3h8ggM-8" value="Настраиваем Debezium&lt;br&gt;и CDC из Баз в Kafka" style="align=left;strokeColor=#6c8ebf;html=1;fillColor=#dae8fc;" vertex="1" parent="1">
          <mxGeometry x="550" y="603.5" width="115" height="51" as="geometry" />
        </mxCell>
        <mxCell id="oRe7QSKqNAqXRH3h8ggM-9" value="Выбор &lt;br&gt;технологии&lt;br&gt;создания пайп&lt;br&gt;лайнов" style="align=left;strokeColor=#6c8ebf;html=1;fillColor=#dae8fc;" vertex="1" parent="1">
          <mxGeometry x="670" y="550" width="85" height="51" as="geometry" />
        </mxCell>
        <mxCell id="oRe7QSKqNAqXRH3h8ggM-10" value="Создание EL пайплайнов&amp;nbsp;" style="align=left;strokeColor=#6c8ebf;html=1;fillColor=#dae8fc;" vertex="1" parent="1">
          <mxGeometry x="760" y="548" width="240" height="51" as="geometry" />
        </mxCell>
        <mxCell id="oRe7QSKqNAqXRH3h8ggM-11" value="Выбор технологии&lt;br&gt;оркестрации&lt;br&gt;ELT Пайплайнов" style="align=left;strokeColor=#6c8ebf;html=1;fillColor=#dae8fc;" vertex="1" parent="1">
          <mxGeometry x="1007.5" y="548" width="102.5" height="51" as="geometry" />
        </mxCell>
        <mxCell id="oRe7QSKqNAqXRH3h8ggM-12" value="Создание ELT&amp;nbsp;&lt;br&gt;Пайплайнов для DWH" style="align=left;strokeColor=#6c8ebf;html=1;fillColor=#dae8fc;" vertex="1" parent="1">
          <mxGeometry x="1120" y="548" width="240" height="51" as="geometry" />
        </mxCell>
        <mxCell id="oRe7QSKqNAqXRH3h8ggM-13" value="Создание витрин&lt;br&gt;&amp;nbsp;командами доменов" style="align=left;strokeColor=#6c8ebf;html=1;fillColor=#dae8fc;" vertex="1" parent="1">
          <mxGeometry x="1360" y="548" width="120" height="51" as="geometry" />
        </mxCell>
        <mxCell id="oRe7QSKqNAqXRH3h8ggM-15" value="&lt;h1 style=&quot;margin-top: 0px;&quot;&gt;Логика распредления Roadmapa&lt;br&gt;&lt;br&gt;&lt;span style=&quot;font-weight: normal;&quot;&gt;Постараемся сорвать &quot;низко висящие фрукты&quot;. Будем собирать гораздо больше неструктированных данных для улучшения точности наших ИИ моделей. Поэтому в первую очередь создадим Data Lake, откуда модели будут брать данные для обучения. Создав, DataLake. Можем приступать к миграции на современные DWH, которые выдержат быстрорастущую нагркузку и позволят работать командам доменов независимо друг от друга =&amp;gt; нагрузка на базу для построения отчетов кратно вырастет. Будем искать новое решение на которое будем переезжать с Microsoft Sql Server&#39;.&amp;nbsp;&lt;br&gt;Наконец, последние полгода посвятим созданию качественных ETL + ELT Пайплайнов, будем собирать гораздо больше данных для аналитики действиия и свойств пользователя. Для чего понадобится внедрить технологии распределенных вычислений.&amp;nbsp;&lt;br&gt;После их внедрения, команды в своих доменах смогут развивать необходимые им пайплайны для построения Витрин, независимо друг от друга&lt;/span&gt;&lt;/h1&gt;" style="text;html=1;whiteSpace=wrap;overflow=hidden;rounded=0;" vertex="1" parent="1">
          <mxGeometry x="202.5" y="-190" width="757.5" height="580" as="geometry" />
        </mxCell>
      </root>
    </mxGraphModel>
  </diagram>
</mxfile>
